<svg xmlns="http://www.w3.org/2000/svg" style="width:100%;height:100%;" data-fc-idx="0"><svg viewBox="0 0 42 21" id="svg11263325123"><path d="M 32.848 15.861 C 30.934 15.861 29.552 14.85 29.339 12.883 L 30.987 12.671 C 31.146 13.894 31.891 14.425 32.848 14.425 C 33.858 14.425 34.389 13.894 34.389 13.096 C 34.389 10.81 29.498 11.554 29.498 7.833 C 29.498 6.291 30.668 5.175 32.582 5.175 C 34.124 5.175 35.612 5.866 35.825 8.045 L 34.177 8.205 C 34.017 6.982 33.326 6.61 32.582 6.61 C 31.731 6.61 31.2 7.142 31.2 7.833 C 31.2 10.066 36.038 9.428 36.038 13.096 C 36.038 14.744 34.815 15.861 32.848 15.861 Z M 24.182 17.934 L 24.448 13.681 L 26.734 13.681 L 25.617 17.934 Z M 15.622 15.754 L 15.622 14.266 L 17.696 14.266 L 17.696 11.129 L 14.719 5.334 L 16.579 5.334 L 17.962 8.205 L 18.44 9.587 L 18.653 9.587 L 19.131 8.205 L 20.514 5.334 L 22.374 5.334 L 19.397 11.129 L 19.397 14.266 L 21.471 14.266 L 21.471 15.754 Z M 9.562 15.861 C 7.276 15.861 5.946 13.681 5.946 10.544 C 5.946 7.407 7.276 5.175 9.721 5.175 C 11.688 5.175 12.964 6.504 13.283 8.577 L 11.635 8.79 C 11.369 7.461 10.678 6.61 9.721 6.61 C 8.339 6.61 7.648 8.205 7.648 10.544 C 7.648 12.883 8.339 14.425 9.774 14.425 C 10.678 14.425 11.476 13.681 11.582 11.714 L 9.721 11.714 L 9.721 10.491 L 13.23 10.491 L 13.23 15.754 L 12.22 15.754 L 12.06 14.053 L 11.795 14.053 C 11.476 15.276 10.625 15.861 9.562 15.861 Z M 3.448 20.911 L 38.536 20.911 C 40.61 20.911 41.726 19.795 41.726 17.721 L 41.726 3.367 C 41.726 1.294 40.61 0.177 38.536 0.177 L 3.448 0.177 C 1.374 0.177 0.258 1.294 0.258 3.367 L 0.258 17.721 C 0.258 19.795 1.374 20.911 3.448 20.911 Z" fill="var(--token-36a0b896-b80b-4b20-9e4d-058a64661849, rgb(0, 0, 0)) /* {&quot;name&quot;:&quot;Black&quot;} */"/></svg></svg>